<?xml version="1.0" standalone="no"?><!DOCTYPE svg PUBLIC "-//W3C//DTD SVG 1.1//EN" "http://www.w3.org/Graphics/SVG/1.1/DTD/svg11.dtd">
<svg t="1759112077459" class="icon" viewBox="0 0 1027 1024" version="1.1" xmlns="http://www.w3.org/2000/svg"
     p-id="13152"
     width="200.5859375" height="200"><path d="M1020.8 540.8v-3.2L899.2 150.4c-6.4-19.2-25.6-32-44.8-32-6.4 0-12.8 0-22.4 3.2-83.2 35.2-195.2 6.4-297.6-54.4C425.6 0 291.2-22.4 192 28.8l-9.6 3.2c-19.2 12.8-32 35.2-32 60.8 0 6.4 0 9.6 3.2 16l3.2 9.6 124.8 403.2 3.2 6.4c6.4 16 25.6 28.8 44.8 28.8 6.4 0 12.8 0 19.2-3.2 3.2 0 3.2-3.2 6.4-3.2 99.2-54.4 224-35.2 342.4 38.4 86.4 54.4 198.4 70.4 281.6 35.2h3.2c25.6-9.6 44.8-35.2 44.8-64-3.2-6.4-3.2-12.8-6.4-19.2z" fill="#CA0000" p-id="13153"></path><path d="M99.2 70.4c-9.6-25.6-35.2-41.6-64-32-25.6 9.6-41.6 35.2-32 60.8l278.4 889.6c9.6 25.6 35.2 41.6 60.8 32h3.2c25.6-9.6 38.4-35.2 32-60.8L99.2 70.4z" fill="#707070" p-id="13154"></path></svg>