<?xml version="1.0" standalone="no"?><!DOCTYPE svg PUBLIC "-//W3C//DTD SVG 1.1//EN" "http://www.w3.org/Graphics/SVG/1.1/DTD/svg11.dtd">
<svg t="1759117596913" class="icon" viewBox="0 0 1024 1024" version="1.1" xmlns="http://www.w3.org/2000/svg" p-id="4814"
     width="200" height="200"><path d="M901.988848 151.924364c0-25.63103-24.420848-19.207758-32.023272-11.667394-14.584242 15.794424-53.061818 47.817697-135.292121 64.729212a163.529697 163.529697 0 0 1-37.919031 4.096c-39.625697 0-72.890182-12.815515-110.747151-27.958303-43.783758-16.942545-93.370182-36.150303-160.985212-36.150303-5.833697 0-11.636364 0-17.501091 0.589576-73.448727 3.475394-137.060848 35.560727-183.047758 59.42303-13.560242 6.795636-27.213576 13.405091-40.866909 19.828363l-4.096-9.836606-0.558545-0.682666a29.820121 29.820121 0 0 0-39.036122-15.732364 28.982303 28.982303 0 0 0-15.763394 16.41503 30.657939 30.657939 0 0 0 0 22.745213l303.786667 719.561696a29.354667 29.354667 0 0 0 27.430788 18.090667 25.879273 25.879273 0 0 0 11.667394-2.358303 29.789091 29.789091 0 0 0 15.763394-39.067151l-103.827394-246.132364a167.873939 167.873939 0 0 1 100.289939-75.186424 225.807515 225.807515 0 0 1 57.126788-7.571394c39.098182 0 76.986182 8.750545 117.201455 18.028606 36.739879 8.22303 74.131394 16.942545 110.809212 16.942545 55.389091 0 97.931636-19.238788 134.702545-60.136727a28.982303 28.982303 0 0 0 2.885818-9.278061V151.924364z m0 0" fill="#E41B00" p-id="4815"></path></svg>